<svg width="24" height="24" viewBox="0 0 24 24" fill="none" xmlns="http://www.w3.org/2000/svg">
<path d="M19.365 9.86301C19.714 9.86301 19.995 10.148 19.995 10.494C19.995 10.839 19.714 11.124 19.365 11.124H17.61V12.249H19.365C19.714 12.249 19.995 12.532 19.995 12.879C19.995 13.223 19.714 13.508 19.365 13.508H16.979C16.634 13.508 16.352 13.223 16.352 12.879V8.10801C16.352 7.76301 16.634 7.47801 16.982 7.47801H19.368C19.714 7.47801 19.995 7.76301 19.995 8.10801C19.995 8.45701 19.714 8.73801 19.365 8.73801H17.61V9.86301H19.365ZM15.51 12.879C15.51 13.149 15.336 13.389 15.078 13.475C15.014 13.496 14.945 13.506 14.879 13.506C14.668 13.506 14.488 13.416 14.369 13.256L11.926 9.93901V12.879C11.926 13.223 11.647 13.508 11.295 13.508C10.949 13.508 10.669 13.223 10.669 12.879V8.10801C10.669 7.83801 10.842 7.59801 11.099 7.51301C11.159 7.49001 11.235 7.48001 11.293 7.48001C11.488 7.48001 11.668 7.58401 11.788 7.73401L14.25 11.064V8.10801C14.25 7.76301 14.532 7.47801 14.88 7.47801C15.225 7.47801 15.51 7.76301 15.51 8.10801V12.879ZM9.769 12.879C9.769 13.223 9.487 13.508 9.138 13.508C8.793 13.508 8.511 13.223 8.511 12.879V8.10801C8.511 7.76301 8.793 7.47801 9.141 7.47801C9.487 7.47801 9.769 7.76301 9.769 8.10801V12.879ZM7.303 13.508H4.917C4.572 13.508 4.287 13.223 4.287 12.879V8.10801C4.287 7.76301 4.572 7.47801 4.917 7.47801C5.265 7.47801 5.547 7.76301 5.547 8.10801V12.249H7.303C7.651 12.249 7.932 12.532 7.932 12.879C7.932 13.223 7.65 13.508 7.303 13.508ZM24 10.314C24 4.94301 18.615 0.572006 12 0.572006C5.385 0.572006 0 4.94301 0 10.314C0 15.125 4.27 19.156 10.035 19.922C10.426 20.004 10.958 20.18 11.093 20.512C11.213 20.813 11.172 21.278 11.131 21.592L10.967 22.612C10.922 22.913 10.727 23.798 12.016 23.257C13.307 22.718 18.932 19.179 21.452 16.282C23.176 14.393 24 12.458 24 10.314Z" fill="white"/>
</svg>
