<svg width="339" height="387" viewBox="0 0 339 387" fill="none" xmlns="http://www.w3.org/2000/svg">
<path d="M162.711 59.2323C164.319 53.3365 172.681 53.3366 174.289 59.2323L188.518 111.422C189.558 115.239 186.685 119 182.729 119H154.271C150.315 119 147.442 115.239 148.482 111.422L162.711 59.2323Z" fill="#00D9FF"/>
<circle cx="168.5" cy="25.5" r="25.5" fill="#FFF700"/>
<ellipse cx="121" cy="215.5" rx="16" ry="24.5" transform="rotate(-180 121 215.5)" fill="#FFF600"/>
<ellipse cx="229" cy="215.5" rx="16" ry="24.5" transform="rotate(-180 229 215.5)" fill="#FFF600"/>
<path d="M37 271C145.163 376.044 258.735 314.768 302 271" stroke="#00D9FF" stroke-width="24"/>
<path d="M85.3828 385.5H83.8828C74.4223 385.5 66.3486 384.494 59.6973 382.441L59.0576 382.24C52.4862 380.117 47.1181 376.875 43.0156 372.483L42.6221 372.055C38.4913 367.466 35.5317 361.697 33.7061 354.8L33.7021 354.786C31.9535 347.926 31.0908 339.861 31.0908 330.609V298.734C31.0908 288.314 29.0377 281.147 25.2646 276.863L24.8936 276.458L24.8857 276.449C20.9778 272.264 13.8498 269.953 3 269.953H1.5V243.047H3C13.8498 243.047 20.9778 240.736 24.8857 236.551L24.8936 236.542L25.2646 236.137C29.0377 231.853 31.0908 224.686 31.0908 214.266V182.391C31.0908 173.139 31.9535 165.074 33.7021 158.214L33.7061 158.2L33.8799 157.557C35.7173 150.944 38.6204 145.39 42.6221 140.945L43.0156 140.517C47.1181 136.125 52.4862 132.883 59.0576 130.76L59.6973 130.559C66.3486 128.506 74.4223 127.5 83.8828 127.5H85.3828V150.023H83.8828C76.3855 150.023 70.6487 151.203 66.5479 153.428L66.5469 153.427C62.5567 155.627 59.6968 159.046 57.9697 163.779C56.2745 168.54 55.3965 174.725 55.3965 182.391V222.234C55.3965 227.539 54.6899 232.405 53.2578 236.821L53.2588 236.822C51.9412 241.08 49.541 244.766 46.0977 247.869L45.3955 248.481C41.5414 251.737 36.1393 254.17 29.3047 255.862L29.3057 255.863C28.8074 255.988 28.2977 256.105 27.7783 256.221V256.778C28.2966 256.893 28.8046 257.012 29.3018 257.136L30.5674 257.462C36.8075 259.135 41.7818 261.466 45.3955 264.519L46.0977 265.131C49.5355 268.229 51.933 271.908 53.252 276.157L53.5127 276.992C54.7742 281.19 55.3965 285.785 55.3965 290.766V330.609C55.3965 338.271 56.2732 344.454 57.9668 349.214L58.1318 349.648C59.8164 353.95 62.5 357.131 66.1836 359.267L66.5557 359.478L66.5625 359.48L65.832 360.791L66.5625 359.481C70.6591 361.766 76.3901 362.977 83.8828 362.977H85.3828V385.5ZM337.5 269.953H336C325.15 269.953 318.022 272.264 314.114 276.449L314.106 276.458C310.097 280.688 307.909 287.978 307.909 298.734V330.609C307.909 339.861 307.046 347.926 305.298 354.786L305.294 354.8C303.525 361.481 300.693 367.104 296.762 371.621L296.378 372.055C292.357 376.521 287.068 379.835 280.574 382.031L279.942 382.24C273.171 384.428 264.883 385.5 255.117 385.5H253.617V362.977H255.117C262.61 362.977 268.341 361.766 272.438 359.481L272.444 359.478L272.816 359.267C276.623 357.06 279.361 353.736 281.033 349.214C282.727 344.454 283.604 338.271 283.604 330.609V290.766C283.604 285.453 284.311 280.579 285.748 276.157C287.155 271.624 289.789 267.741 293.604 264.519L293.971 264.215C297.799 261.111 303.076 258.775 309.698 257.136C310.195 257.012 310.703 256.893 311.222 256.778V256.221C310.702 256.105 310.193 255.988 309.694 255.863V255.862C303.074 254.223 297.798 251.889 293.971 248.785L293.604 248.481C289.784 245.254 287.147 241.364 285.741 236.822V236.821C284.309 232.406 283.604 227.539 283.604 222.234V182.391C283.604 174.725 282.726 168.54 281.03 163.779L280.865 163.34C279.123 158.833 276.318 155.559 272.452 153.427V153.428C268.351 151.203 262.614 150.023 255.117 150.023H253.617V127.5H255.117C264.883 127.5 273.171 128.572 279.942 130.76L280.574 130.969C287.068 133.165 292.357 136.479 296.378 140.945L296.762 141.379C300.566 145.75 303.342 151.157 305.12 157.557L305.294 158.2L305.298 158.214L305.615 159.514C307.151 166.086 307.909 173.717 307.909 182.391V214.266C307.909 224.686 309.962 231.853 313.735 236.137L314.106 236.542L314.114 236.551L314.489 236.938C318.47 240.878 325.489 243.047 336 243.047H337.5V269.953Z" fill="#00D9FF" stroke="#00D9FF" stroke-width="3"/>
<rect x="81" y="126" width="157" height="26" fill="#00D9FF"/>
<rect x="98" y="362" width="160" height="25" fill="#00D9FF"/>
</svg>
